Genre:Adventure | Drama
Language:English
IMDb:http://www.imdb.com/title/tt0454876/
Source:DVDSCR NoGrP Thanks
Encoder:Tony

Format : AVI
Format/Info : Audio Video Interleave
File size : 1.55 GiB
Duration : 2h 6mn
Overall bit rate : 1 747 Kbps

Video
ID : 0
Format : MPEG-4 Visual
Format profile : Advanced Simple@L5
Format settings, BVOP : 1
Format settings, QPel : No
Format settings, GMC : No warppoints
Format settings, Matrix : Default (H.263)
Codec ID : XVID
Codec ID/Hint : XviD
Duration : 2h 6mn
Bit rate : 1 546 Kbps
Width : 640 pixels
Height : 352 pixels
Display aspect ratio : 16:9
Frame rate : 23.976 fps
Color space : YUV
Chroma subsampling : 4:2:0
Bit depth : 8 bits
Scan type : Progressive
Compression mode : Lossy
Bits/(Pixel*Frame) : 0.286
Stream size : 1.37 GiB (88%)
Writing library : XviD 1.2.1 (UTC 2008-12-04)

Audio
ID : 1
Format : AC-3
Format/Info : Audio Coding 3
Mode extension : CM (complete main)
Codec ID : 2000
Duration : 2h 6mn
Bit rate mode : Constant
Bit rate : 192 Kbps
Channel(s) : 2 channels
Channel positions : Front: L R
Sampling rate : 48.0 KHz
Bit depth : 16 bits
Compression mode : Lossy
Stream size : 174 MiB (11%)
Alignment : Aligned on interleaves
Interleave, duration : 42 ms (1.00 video frame)
Interleave, preload duration : 512 ms

Plot:
A young man who survives a disaster at sea is hurtled into an epic journey of adventure and discovery. While cast away, he forms an unexpected connection with another survivor ... a fearsome Bengal tiger.
 
http://lookpic.com/O/i2/526/NMmEzvWY.png
 
http://lookpic.com/O/i2/533/483LcPRe.png
 
http://lookpic.com/O/i2/1225/FmrVU8Qv.png
 
http://lookpic.com/O/i2/51/DeraUttB.png
 
http://lookpic.com/O/i2/750/iIqb41kU.png